<svg width="301" height="301" viewBox="0 0 301 301" fill="none" xmlns="http://www.w3.org/2000/svg">
<g clip-path="url(#clip0_601_4)">
<path d="M256.917 44.1676C228.586 15.8357 190.918 0.233398 150.851 0.233398C110.785 0.233398 73.1159 15.8357 44.7853 44.1676C16.4534 72.4982 0.8511 110.167 0.8511 150.233C0.8511 190.3 16.4534 227.969 44.7853 256.299C73.1159 284.631 110.785 300.233 150.851 300.233C190.918 300.233 228.586 284.631 256.917 256.299C285.249 227.969 300.851 190.3 300.851 150.233C300.851 110.167 285.249 72.4982 256.917 44.1676ZM208.978 22.4135C239.761 36.4684 264.616 61.3232 278.671 92.1066L269.818 95.7734C256.743 67.325 233.76 44.341 205.311 31.2664L208.978 22.4135ZM272.128 150.233C272.128 200.659 241.19 243.989 197.301 262.255C197.287 262.261 197.273 262.265 197.259 262.271C197.247 262.276 197.236 262.282 197.225 262.287C182.93 268.224 167.268 271.51 150.851 271.51C83.9792 271.51 29.5743 217.105 29.5743 150.233C29.5743 99.7947 60.5282 56.4553 104.434 38.1969C118.751 32.2461 134.423 28.9561 150.851 28.9561C167.28 28.9561 182.953 32.2467 197.257 38.1928C226.867 50.5045 250.579 74.2162 262.889 103.822C268.837 118.129 272.128 133.804 272.128 150.233ZM150.851 9.80762C168.185 9.80762 184.792 12.9729 200.135 18.7426L196.47 27.5914C182.258 22.2887 166.889 19.3824 150.851 19.3824C134.814 19.3824 119.444 22.2887 105.232 27.5914L101.567 18.742C116.91 12.9734 133.517 9.80762 150.851 9.80762ZM92.7243 22.4135L96.3911 31.2664C67.9433 44.3422 44.9593 67.3256 31.8847 95.774L23.0318 92.1072C37.0861 61.3238 61.9415 36.4684 92.7243 22.4135ZM10.4253 150.233C10.4253 132.899 13.5906 116.292 19.3603 100.95L28.2091 104.615C22.9064 118.827 20.0001 134.196 20.0001 150.233C20.0001 166.271 22.9064 181.64 28.2091 195.852L19.3603 199.517C13.5911 184.174 10.4253 167.568 10.4253 150.233ZM92.7243 278.053C61.9409 263.998 37.0861 239.144 23.0312 208.36L31.8841 204.693C44.9593 233.142 67.9427 256.126 96.3911 269.2L92.7243 278.053ZM150.851 290.659C133.517 290.659 116.91 287.494 101.567 281.724L105.233 272.875C119.444 278.178 134.813 281.084 150.851 281.084C166.888 281.084 182.257 278.178 196.469 272.875L200.134 281.725C184.792 287.493 168.185 290.659 150.851 290.659ZM208.978 278.053L205.311 269.2C233.76 256.126 256.743 233.142 269.818 204.693L278.671 208.36C264.616 239.143 239.761 263.998 208.978 278.053ZM273.493 195.852C278.796 181.64 281.702 166.271 281.702 150.233C281.702 134.196 278.796 118.827 273.493 104.616L282.342 100.951C288.112 116.293 291.277 132.9 291.277 150.234C291.277 167.568 288.112 184.175 282.342 199.518L273.493 195.852Z" fill="#828282"/>
<path d="M251.452 186.722L163.361 150.234L251.454 113.744C253.897 112.732 255.057 109.931 254.045 107.489C253.033 105.047 250.232 103.887 247.79 104.898L159.697 141.388L196.187 53.2945C197.199 50.8517 196.039 48.0515 193.596 47.0396C191.154 46.0277 188.353 47.1873 187.341 49.6306L150.851 137.724L114.361 49.6312C113.349 47.1884 110.549 46.0289 108.106 47.0402C105.664 48.0521 104.504 50.8529 105.515 53.2951L142.005 141.388L53.9124 104.899C51.4708 103.887 48.6695 105.046 47.6575 107.49C46.6456 109.932 47.8058 112.733 50.2486 113.744L138.341 150.234L50.2439 186.725C47.8011 187.737 46.6415 190.537 47.6529 192.98C48.4163 194.823 50.1988 195.936 52.0773 195.936C52.6878 195.936 53.3083 195.819 53.9072 195.571L142.005 159.08L105.515 247.174C104.503 249.616 105.663 252.417 108.106 253.428C108.705 253.677 109.326 253.794 109.936 253.794C111.814 253.794 113.597 252.681 114.36 250.837L150.851 162.744L187.342 250.84C188.106 252.684 189.889 253.797 191.767 253.797C192.378 253.797 192.998 253.68 193.597 253.431C196.04 252.419 197.199 249.619 196.188 247.177L159.697 159.079L247.789 195.568C248.388 195.816 249.009 195.933 249.619 195.933C251.498 195.933 253.281 194.82 254.044 192.977C255.055 190.535 253.895 187.734 251.452 186.722Z" fill="#828282"/>
<path d="M150.851 49.7012C141.172 49.7012 133.298 57.575 133.298 67.2541C133.298 76.9332 141.172 84.807 150.851 84.807C160.53 84.807 168.404 76.9332 168.404 67.2541C168.404 57.575 160.53 49.7012 150.851 49.7012ZM150.851 75.2328C146.451 75.2328 142.872 71.6539 142.872 67.2541C142.872 62.8543 146.451 59.2754 150.851 59.2754C155.251 59.2754 158.83 62.8543 158.83 67.2541C158.83 71.6539 155.251 75.2328 150.851 75.2328Z" fill="#828282"/>
<path d="M104.588 79.147C101.273 75.8317 96.8646 74.0054 92.1759 74.0054C87.4872 74.0054 83.0798 75.8312 79.764 79.147C76.4488 82.4622 74.6224 86.8702 74.6224 91.5589C74.6224 96.2476 76.4482 100.655 79.764 103.971C83.0792 107.287 87.4872 109.112 92.1759 109.112C96.864 109.112 101.273 107.287 104.588 103.971C107.903 100.656 109.729 96.2476 109.729 91.5589C109.729 86.8702 107.904 82.4622 104.588 79.147ZM97.8179 97.2003C96.3109 98.7073 94.307 99.537 92.1759 99.537C90.0448 99.537 88.0409 98.7073 86.5339 97.2003C83.4238 94.089 83.4238 89.0276 86.5339 85.9163C88.0409 84.4093 90.0443 83.5796 92.1759 83.5796C94.3075 83.5796 96.3109 84.4093 97.8179 85.9163C100.929 89.0276 100.929 94.0896 97.8179 97.2003Z" fill="#828282"/>
<path d="M67.8724 132.681C58.1933 132.681 50.3195 140.555 50.3195 150.234C50.3195 159.913 58.1933 167.787 67.8724 167.787C77.5515 167.787 85.4253 159.913 85.4253 150.234C85.4253 140.555 77.5515 132.681 67.8724 132.681ZM67.8724 158.213C63.4726 158.213 59.8937 154.634 59.8937 150.234C59.8937 145.834 63.4726 142.255 67.8724 142.255C72.2722 142.255 75.8511 145.834 75.8511 150.234C75.8511 154.634 72.2722 158.213 67.8724 158.213Z" fill="#828282"/>
<path d="M104.588 196.497C101.273 193.182 96.8646 191.355 92.1759 191.355C87.4872 191.355 83.0798 193.181 79.764 196.497C76.4488 199.812 74.6224 204.22 74.6224 208.909C74.6224 213.597 76.4482 218.005 79.764 221.321C83.0792 224.636 87.4872 226.462 92.1759 226.462C96.8646 226.462 101.272 224.636 104.588 221.321C107.903 218.005 109.729 213.597 109.729 208.909C109.729 204.22 107.904 199.811 104.588 196.497ZM97.8179 214.55C96.3109 216.057 94.3075 216.887 92.1759 216.887C90.0443 216.887 88.0409 216.057 86.5339 214.55C83.4226 211.439 83.4226 206.377 86.5339 203.266C88.0409 201.759 90.0443 200.929 92.1759 200.929C94.3075 200.929 96.3109 201.759 97.8179 203.266C100.929 206.377 100.929 211.439 97.8179 214.55Z" fill="#828282"/>
<path d="M150.851 215.659C141.172 215.659 133.298 223.533 133.298 233.212C133.298 242.891 141.172 250.765 150.851 250.765C160.53 250.765 168.404 242.891 168.404 233.212C168.404 223.533 160.53 215.659 150.851 215.659ZM150.851 241.191C146.451 241.191 142.872 237.612 142.872 233.212C142.872 228.813 146.451 225.234 150.851 225.234C155.251 225.234 158.83 228.813 158.83 233.212C158.83 237.612 155.251 241.191 150.851 241.191Z" fill="#828282"/>
<path d="M221.938 196.497C218.622 193.181 214.214 191.355 209.526 191.355C204.838 191.355 200.43 193.181 197.114 196.497C193.799 199.812 191.972 204.22 191.972 208.909C191.972 213.597 193.798 218.005 197.114 221.321C200.429 224.636 204.837 226.462 209.526 226.462C214.214 226.462 218.622 224.636 221.938 221.321C225.253 218.005 227.079 213.597 227.079 208.909C227.079 204.22 225.253 199.812 221.938 196.497ZM215.168 214.55C213.661 216.057 211.657 216.887 209.526 216.887C207.395 216.887 205.391 216.057 203.884 214.55C200.772 211.439 200.772 206.377 203.884 203.266C205.391 201.759 207.395 200.929 209.526 200.929C211.657 200.929 213.661 201.759 215.168 203.266C218.278 206.377 218.278 211.439 215.168 214.55Z" fill="#828282"/>
<path d="M233.83 132.681C224.151 132.681 216.277 140.555 216.277 150.234C216.277 159.913 224.151 167.787 233.83 167.787C243.509 167.787 251.383 159.913 251.383 150.234C251.383 140.555 243.509 132.681 233.83 132.681ZM233.83 158.213C229.43 158.213 225.851 154.634 225.851 150.234C225.851 145.834 229.43 142.255 233.83 142.255C238.23 142.255 241.809 145.834 241.809 150.234C241.809 154.634 238.23 158.213 233.83 158.213Z" fill="#828282"/>
<path d="M221.938 79.147C218.622 75.8317 214.214 74.0054 209.526 74.0054C204.838 74.0054 200.43 75.8312 197.114 79.147C193.799 82.4622 191.972 86.8702 191.972 91.5589C191.972 96.2476 193.798 100.656 197.114 103.971C200.429 107.286 204.837 109.112 209.526 109.112C214.214 109.112 218.622 107.287 221.938 103.971C225.253 100.656 227.079 96.2476 227.079 91.5589C227.079 86.8702 225.253 82.4622 221.938 79.147ZM215.168 97.2003C213.661 98.7073 211.657 99.537 209.526 99.537C207.395 99.537 205.391 98.7073 203.884 97.2003C200.772 94.089 200.772 89.0276 203.884 85.9163C205.391 84.4093 207.395 83.5796 209.526 83.5796C211.657 83.5796 213.661 84.4093 215.168 85.9163C218.279 89.0276 218.279 94.0896 215.168 97.2003Z" fill="#828282"/>
<path d="M173.421 49.4719C176.065 49.4719 178.209 47.3287 178.209 44.6848C178.209 42.041 176.065 39.8977 173.421 39.8977C170.778 39.8977 168.634 42.041 168.634 44.6848C168.634 47.3287 170.778 49.4719 173.421 49.4719Z" fill="#828282"/>
<path d="M150.851 103.957C153.495 103.957 155.638 101.814 155.638 99.1697C155.638 96.5258 153.495 94.3826 150.851 94.3826C148.207 94.3826 146.064 96.5258 146.064 99.1697C146.064 101.814 148.207 103.957 150.851 103.957Z" fill="#828282"/>
<path d="M92.1788 64.4329C94.8227 64.4329 96.9659 62.2896 96.9659 59.6458C96.9659 57.0019 94.8227 54.8586 92.1788 54.8586C89.535 54.8586 87.3917 57.0019 87.3917 59.6458C87.3917 62.2896 89.535 64.4329 92.1788 64.4329Z" fill="#828282"/>
<path d="M60.264 96.3481C62.9078 96.3481 65.0511 94.2049 65.0511 91.561C65.0511 88.9172 62.9078 86.7739 60.264 86.7739C57.6201 86.7739 55.4769 88.9172 55.4769 91.561C55.4769 94.2049 57.6201 96.3481 60.264 96.3481Z" fill="#828282"/>
<path d="M45.3021 132.457C47.9459 132.457 50.0892 130.313 50.0892 127.669C50.0892 125.026 47.9459 122.882 45.3021 122.882C42.6582 122.882 40.515 125.026 40.515 127.669C40.515 130.313 42.6582 132.457 45.3021 132.457Z" fill="#828282"/>
<path d="M99.7872 155.02C102.431 155.02 104.574 152.877 104.574 150.233C104.574 147.589 102.431 145.446 99.7872 145.446C97.1434 145.446 95.0001 147.589 95.0001 150.233C95.0001 152.877 97.1434 155.02 99.7872 155.02Z" fill="#828282"/>
<path d="M60.264 213.693C62.9078 213.693 65.0511 211.55 65.0511 208.906C65.0511 206.262 62.9078 204.119 60.264 204.119C57.6201 204.119 55.4769 206.262 55.4769 208.906C55.4769 211.55 57.6201 213.693 60.264 213.693Z" fill="#828282"/>
<path d="M92.1788 245.607C94.8227 245.607 96.9659 243.464 96.9659 240.82C96.9659 238.176 94.8227 236.033 92.1788 236.033C89.535 236.033 87.3917 238.176 87.3917 240.82C87.3917 243.464 89.535 245.607 92.1788 245.607Z" fill="#828282"/>
<path d="M128.287 260.569C130.931 260.569 133.074 258.426 133.074 255.782C133.074 253.138 130.931 250.995 128.287 250.995C125.643 250.995 123.5 253.138 123.5 255.782C123.5 258.426 125.643 260.569 128.287 260.569Z" fill="#828282"/>
<path d="M150.851 206.084C153.495 206.084 155.638 203.941 155.638 201.297C155.638 198.654 153.495 196.51 150.851 196.51C148.207 196.51 146.064 198.654 146.064 201.297C146.064 203.941 148.207 206.084 150.851 206.084Z" fill="#828282"/>
<path d="M209.523 245.607C212.167 245.607 214.31 243.464 214.31 240.82C214.31 238.176 212.167 236.033 209.523 236.033C206.88 236.033 204.736 238.176 204.736 240.82C204.736 243.464 206.88 245.607 209.523 245.607Z" fill="#828282"/>
<path d="M241.438 213.693C244.082 213.693 246.225 211.55 246.225 208.906C246.225 206.262 244.082 204.119 241.438 204.119C238.794 204.119 236.651 206.262 236.651 208.906C236.651 211.55 238.794 213.693 241.438 213.693Z" fill="#828282"/>
<path d="M256.4 177.591C259.044 177.591 261.187 175.448 261.187 172.804C261.187 170.16 259.044 168.017 256.4 168.017C253.756 168.017 251.613 170.16 251.613 172.804C251.613 175.448 253.756 177.591 256.4 177.591Z" fill="#828282"/>
<path d="M201.915 155.02C204.559 155.02 206.702 152.877 206.702 150.233C206.702 147.589 204.559 145.446 201.915 145.446C199.271 145.446 197.128 147.589 197.128 150.233C197.128 152.877 199.271 155.02 201.915 155.02Z" fill="#828282"/>
<path d="M241.438 96.3481C244.082 96.3481 246.225 94.2049 246.225 91.561C246.225 88.9172 244.082 86.7739 241.438 86.7739C238.794 86.7739 236.651 88.9172 236.651 91.561C236.651 94.2049 238.794 96.3481 241.438 96.3481Z" fill="#828282"/>
<path d="M209.523 64.4329C212.167 64.4329 214.31 62.2896 214.31 59.6458C214.31 57.0019 212.167 54.8586 209.523 54.8586C206.88 54.8586 204.736 57.0019 204.736 59.6458C204.736 62.2896 206.88 64.4329 209.523 64.4329Z" fill="#828282"/>
</g>
<defs>
<clipPath id="clip0_601_4">
<rect width="300" height="300" fill="white" transform="translate(0.8511 0.233398)"/>
</clipPath>
</defs>
</svg>
